<svg width="397" height="105" viewBox="0 0 397 105" fill="none" xmlns="http://www.w3.org/2000/svg">
<path d="M382.499 45.8544V48.5127H380.741V53.8291H378.984V61.8038H377.226V67.1202H375.468V75.0949H373.711V83.0696H371.953V91.0443H373.711V93.7025H377.226V91.0443H380.741V88.3861H382.499V91.0443H380.741V93.7025H378.984V96.3607H377.226V99.019H375.468V101.677H364.922V99.019H363.164V85.7278H364.922V77.7531H366.68V72.4367H368.438V64.462H370.195V59.1456H371.953V51.1709H373.711V43.1962H368.438V40.538H371.953V37.8798H375.468V35.2215H377.226V32.5633H378.984V29.9051H380.741V27.2468H384.257V24.5886H386.014V21.9304H387.772V27.2468H386.014V32.5633H384.257V37.8798H394.803V43.1962H378.984V45.8544H382.499Z" fill="#F7F484"/>
<path d="M329.775 99.019V101.677H322.745V96.3608H324.502V91.0443H326.26V83.0696H328.018V77.7532H329.775V69.7785H331.533V61.8038H333.291V56.4873H335.048V45.8544H333.291V43.1962H331.533V40.538H340.321V37.8798H345.594V45.8544H343.837V51.1709H342.079V53.8291H340.321V56.4873H338.564V61.8038H340.321V59.1456H342.079V53.8291H343.837V51.1709H345.594V48.5127H347.352V45.8544H349.11V43.1962H350.868V40.538H354.383V37.8798H359.656V40.538H363.171V53.8291H361.414V56.4873H356.141V53.8291H354.383V48.5127H356.141V45.8544H350.868V48.5127H349.11V51.1709H347.352V53.8291H345.594V56.4873H343.837V59.1456H342.079V64.462H340.321V67.1203H338.564V72.4367H336.806V80.4114H335.048V85.7278H333.291V93.7025H331.533V99.019H329.775Z" fill="#F7F484"/>
<path d="M292.86 99.019V101.677H282.314V99.019H280.557V96.3608H278.799V93.7025H277.041V72.4367H278.799V67.1203H280.557V61.8038H282.314V56.4873H284.072V53.8291H285.83V51.1709H287.587V48.5127H289.345V45.8544H291.103V43.1962H294.618V40.538H299.891V37.8798H308.68V40.538H313.953V43.1962H315.71V40.538H320.983V45.8544H319.226V51.1709H317.468V59.1456H315.71V64.462H313.953V72.4367H312.195V77.7532H310.437V85.7278H308.68V93.7025H313.953V91.0443H315.71V88.3861H317.468V85.7278H319.226V88.3861H317.468V93.7025H315.71V96.3608H312.195V99.019H310.437V101.677H301.649V99.019H299.891V93.7025H301.649V88.3861H303.407V85.7278H301.649V88.3861H299.891V91.0443H298.133V93.7025H296.376V96.3608H294.618V99.019H292.86ZM287.587 93.7025H294.618V91.0443H296.376V88.3861H298.133V85.7278H299.891V83.0696H301.649V80.4114H303.407V75.0949H305.164V69.7785H306.922V61.8038H308.68V56.4873H310.437V45.8544H308.68V43.1962H299.891V45.8544H296.376V48.5127H294.618V51.1709H292.86V53.8291H291.103V59.1456H289.345V61.8038H287.587V69.7785H285.83V91.0443H287.587V93.7025ZM305.164 80.4114H303.407V83.0696H305.164V80.4114Z" fill="#F7F484"/>
<path d="M255.935 99.0189V101.677H238.358V99.0189H234.843V96.3607H233.085V93.7025H229.57V88.386H227.812V85.7278H226.054V80.4114H224.297V69.7784H222.539V61.8038H224.297V48.5126H226.054V40.538H227.812V35.2215H229.57V32.5633H231.328V27.2468H233.085V24.5886H234.843V21.9304H236.601V19.2721H238.358V16.6139H241.874V13.9557H245.389V11.2975H248.904V8.63922H268.239V11.2975H271.754V13.9557H273.512V16.6139H275.27V19.2721H277.027V24.5886H278.785V19.2721H277.027V16.6139H280.543V13.9557H284.058V19.2721H282.301V27.2468H280.543V35.2215H278.785V43.1962H275.27V32.5633H273.512V24.5886H271.754V21.9304H269.997V19.2721H268.239V16.6139H266.481V13.9557H254.177V16.6139H250.662V19.2721H247.147V21.9304H245.389V24.5886H243.631V27.2468H241.874V32.5633H240.116V35.2215H238.358V40.538H236.601V45.8544H234.843V53.8291H233.085V77.7531H234.843V83.0696H236.601V88.386H238.358V91.0443H240.116V93.7025H245.389V96.3607H255.935V93.7025H261.208V91.0443H262.966V88.386H266.481V85.7278H268.239V83.0696H269.997V85.7278H268.239V88.386H266.481V91.0443H264.724V93.7025H262.966V96.3607H259.451V99.0189H255.935Z" fill="#F7F484"/>
<path d="M166.269 99.019V101.677H155.723V99.019H153.965V96.3608H152.208V93.7025H150.45V72.4367H152.208V67.1203H153.965V61.8038H155.723V56.4873H157.481V53.8291H159.238V51.1709H160.996V48.5127H162.754V45.8544H164.511V43.1962H168.027V40.538H173.3V37.8798H182.088V40.538H187.361V43.1962H189.119V40.538H194.392V45.8544H192.634V51.1709H190.877V59.1456H189.119V64.462H187.361V72.4367H185.604V77.7532H183.846V85.7278H182.088V93.7025H187.361V91.0443H189.119V88.3861H190.877V85.7278H192.634V88.3861H190.877V93.7025H189.119V96.3608H185.604V99.019H183.846V101.677H175.057V99.019H173.3V93.7025H175.057V88.3861H176.815V85.7278H175.057V88.3861H173.3V91.0443H171.542V93.7025H169.784V96.3608H168.027V99.019H166.269ZM160.996 93.7025H168.027V91.0443H169.784V88.3861H171.542V85.7278H173.3V83.0696H175.057V80.4114H176.815V75.0949H178.573V69.7785H180.331V61.8038H182.088V56.4873H183.846V45.8544H182.088V43.1962H173.3V45.8544H169.784V48.5127H168.027V51.1709H166.269V53.8291H164.511V59.1456H162.754V61.8038H160.996V69.7785H159.238V91.0443H160.996V93.7025ZM178.573 80.4114H176.815V83.0696H178.573V80.4114Z" fill="#F7F484"/>
<path d="M138.177 93.7025V101.677H87.2039V99.0189H88.9616V96.3607H94.2347V93.7025H95.9924V91.0443H97.7501V88.386H99.5078V80.4114H101.265V72.4367H103.023V67.1202H104.781V59.1455H106.539V51.1709H108.296V45.8544H110.054V37.8797H111.812V29.905H113.569V24.5886H115.327V13.9557H110.054V8.63922H134.662V13.9557H127.631V16.6139H125.873V19.2721H124.115V24.5886H122.358V32.5633H120.6V37.8797H118.842V45.8544H117.085V53.8291H115.327V59.1455H113.569V67.1202H111.812V72.4367H110.054V80.4114H108.296V88.386H106.539V93.7025H103.023V96.3607H127.631V93.7025H131.146V91.0443H132.904V88.386H134.662V85.7278H136.419V83.0696H138.177V80.4114H139.935V75.0949H141.692V72.4367H143.45V69.7784H146.965V72.4367H145.208V77.7531H143.45V83.0696H141.692V88.386H139.935V93.7025H138.177Z" fill="#F7F484"/>
<path d="M48.497 72.4367H52.0124V69.7785H25.6471V72.4367H23.8894V75.0949H22.1317V80.4114H20.374V83.0696H18.6163V85.7278H16.8586V96.3607H20.374V101.677H2.79712V99.019H4.55481V96.3607H8.07019V93.7025H9.82787V91.0443H11.5856V88.386H13.3433V83.0696H15.1009V80.4114H16.8586V77.7531H18.6163V75.0949H20.374V69.7785H22.1317V67.1202H23.8894V64.462H25.6471V59.1455H27.4048V56.4873H29.1624V53.8291H30.9201V48.5126H32.6778V45.8544H34.4355V43.1962H36.1932V40.538H37.9509V35.2215H39.7086V32.5633H41.4663V29.9051H43.224V24.5886H44.9816V21.9304H46.7393V19.2721H48.497V13.9557H50.2547V11.2975H52.0124V8.63923H53.7701V3.32278H55.5278V32.5633H57.2855V72.4367H59.0432V93.7025H60.8009V96.3607H62.5585V99.019H64.3162V101.677H43.224V96.3607H48.497V93.7025H50.2547V80.4114H48.497V72.4367ZM29.1624 64.462H48.497V32.5633H46.7393V29.9051H44.9816V32.5633H43.224V37.8797H41.4663V40.538H39.7086V43.1962H37.9509V48.5126H36.1932V51.1709H34.4355V53.8291H32.6778V59.1455H30.9201V61.8038H29.1624V64.462Z" fill="#F7F484"/>
<path fill-rule="evenodd" clip-rule="evenodd" d="M380.741 48.5127H382.499V45.8544H378.984V43.1962H394.803V37.8797H384.257V32.5633H386.014V27.2468H387.772V21.9304H386.014V24.5886H384.257V27.2468H380.741V29.9051H378.984V32.5633H377.226V35.2215H375.468V37.8797H371.953V40.538H368.438V43.1962H373.711V51.1709H371.953V59.1456H370.195V64.462H368.438V72.4367H366.68V77.7531H364.922V85.7278H363.165V99.019H364.922V101.677H375.468V99.019H377.226V96.3607H378.984V93.7025H380.741V91.0443H382.499V88.3861H380.741V91.0443H377.226V93.7025H373.711V91.0443H371.953V83.0696H373.711V75.0949H375.468V67.1202H377.226V61.8038H378.984V53.8291H380.741V48.5127ZM382.939 51.8354V57.1519H381.181V65.1266H379.423V70.443H377.665V78.4177H375.908V86.3924H374.15V87.7215H378.544V85.0633H384.696V94.3671H382.939V97.0253H381.181V99.6835H379.423V102.342H377.665V105H362.725V102.342H360.967V82.405H362.725V74.4304H364.483V69.1139H366.24V61.1392H367.998V55.8228H369.756V47.8481H371.514V46.519H366.24V37.2152H369.756V34.557H373.271V31.8987H375.029V29.2405H376.787V26.5823H378.544V23.9241H382.06V21.2658H383.817V18.6076H389.969V30.5696H388.212V34.557H397V46.519H384.696V51.8354H382.939Z" fill="#882766"/>
<path fill-rule="evenodd" clip-rule="evenodd" d="M329.775 101.677V99.019H331.533V93.7025H333.291V85.7279H335.048V80.4114H336.806V72.4367H338.564V67.1203H340.321V64.462H342.079V59.1456H343.837V56.4874H345.594V53.8291H347.352V51.1709H349.11V48.5127H350.868V45.8544H356.141V48.5127H354.383V53.8291H356.141V56.4874H361.414V53.8291H363.171V40.538H359.656V37.8798H354.383V40.538H350.868V43.1962H349.11V45.8544H347.352V48.5127H345.594V51.1709H343.837V45.8544H345.594V37.8798H340.321V40.538H331.533V43.1962H333.291V45.8544H335.048V56.4874H333.291V61.8038H331.533V69.7785H329.775V77.7532H328.018V83.0696H326.26V91.0443H324.502V96.3608H322.745V101.677H329.775ZM331.972 102.342V105H320.547V93.038H322.305V87.7215H324.063V79.7468H325.82V74.4304H327.578V66.4557H329.336V58.481H331.094V53.1646H332.851V49.1772H331.094V46.519H329.336V37.2152H338.124V34.557H347.792V39.8734H348.67V37.2152H352.186V34.557H361.853V37.2152H365.368V57.1519H363.611V59.8101H353.943V57.1519H352.186V51.8355H351.307V54.4937H349.549V57.1519H347.792V59.8101H346.034V62.4684H344.276V67.7848H342.519V70.443H340.761V75.7595H339.003V83.7342H337.245V89.0506H335.488V97.0253H333.73V102.342H331.972ZM338.564 61.8038H340.321V59.1456H342.079V53.8291H343.837V51.1709H342.079V53.8291H340.321V56.4874H338.564V61.8038Z" fill="#882766"/>
<path fill-rule="evenodd" clip-rule="evenodd" d="M292.86 101.677V99.019H294.618V96.3608H296.376V93.7025H298.133V91.0443H299.891V88.3861H301.649V93.7025H299.891V99.019H301.649V101.677H310.437V99.019H312.195V96.3608H315.71V93.7025H317.468V88.3861H319.226V85.7279H317.468V88.3861H315.71V91.0443H313.953V93.7025H308.68V85.7279H310.437V77.7532H312.195V72.4367H313.953V64.462H315.71V59.1456H317.468V51.1709H319.226V45.8544H320.983V40.538H315.71V43.1962H313.953V40.538H308.68V37.8798H299.891V40.538H294.618V43.1962H291.103V45.8544H289.345V48.5127H287.587V51.1709H285.83V53.8291H284.072V56.4874H282.314V61.8038H280.557V67.1203H278.799V72.4367H277.041V93.7025H278.799V96.3608H280.557V99.019H282.314V101.677H292.86ZM295.057 102.342V105H280.117V102.342H278.359V99.6835H276.602V97.0253H274.844V69.1139H276.602V63.7975H278.359V58.481H280.117V53.1646H281.875V50.5063H283.632V47.8481H285.39V45.1899H287.148V42.5317H288.906V39.8734H292.421V37.2152H297.694V34.557H310.877V37.2152H323.18V49.1772H321.423V54.4937H319.665V62.4684H317.907V67.7848H316.15V75.7595H314.392V81.0759H312.634V87.7215H313.513V85.0633H315.271V82.4051H321.423V91.7089H319.665V97.0253H317.907V99.6835H314.392V102.342H312.634V105H299.452V102.342H297.694V99.6835H296.815V102.342H295.057ZM311.756 90.3797V89.0506H310.877V90.3797H311.756ZM296.376 48.5127H294.618V51.1709H292.86V53.8291H291.103V59.1456H289.345V61.8038H287.587V69.7785H285.83V91.0443H287.587V93.7025H294.618V91.0443H296.376V88.3861H298.133V85.7279H299.891V83.0696H301.649V80.4114H303.406V83.0696H305.164V80.4114H303.406V75.0949H305.164V69.7785H306.922V61.8038H308.68V56.4874H310.437V45.8544H308.68V43.1962H299.891V45.8544H296.376V48.5127ZM298.573 49.1772H302.088V46.519H306.482V49.1772H308.24V53.1646H306.482V58.481H304.725V66.4557H302.967V71.7722H301.209V77.0886H299.452V79.7468H297.694V82.4051H295.936V85.0633H294.179V87.7215H292.421V90.3797H289.784V87.7215H288.027V73.1013H289.784V65.1266H291.542V62.4684H293.3V57.1519H295.057V54.4937H296.815V51.8355H298.573V49.1772ZM303.406 85.7279H301.649V88.3861H303.406V85.7279Z" fill="#882766"/>
<path fill-rule="evenodd" clip-rule="evenodd" d="M255.935 99.0189H259.451V96.3607H262.966V93.7025H264.724V91.0443H266.481V88.386H268.239V85.7278H269.997V83.0696H268.239V85.7278H266.481V88.386H262.966V91.0443H261.208V93.7025H255.935V96.3607H245.389V93.7025H240.116V91.0443H238.358V88.386H236.601V83.0696H234.843V77.7531H233.085V53.8291H234.843V45.8544H236.601V40.5379H238.358V35.2215H240.116V32.5633H241.874V27.2468H243.631V24.5886H245.389V21.9304H247.147V19.2721H250.662V16.6139H254.178V13.9557H266.481V16.6139H268.239V19.2721H269.997V21.9304H271.754V24.5886H273.512V32.5633H275.27V43.1962H278.785V35.2215H280.543V27.2468H282.301V19.2721H284.058V13.9557H280.543V16.6139H277.027V19.2721H275.27V16.6139H273.512V13.9557H271.754V11.2975H268.239V8.63922H248.904V11.2975H245.389V13.9557H241.874V16.6139H238.358V19.2721H236.601V21.9304H234.843V24.5886H233.085V27.2468H231.328V32.5633H229.57V35.2215H227.812V40.5379H226.054V48.5126H224.297V61.8038H222.539V69.7784H224.297V80.4114H226.054V85.7278H227.812V88.386H229.57V93.7025H233.085V96.3607H234.843V99.0189H238.358V101.677H255.935V99.0189ZM258.132 102.342V105H236.161V102.342H232.646V99.6835H230.888V97.0253H227.373V91.7088H225.615V89.0506H223.857V83.7341H222.1V73.1012H220.342V58.481H222.1V45.1898H223.857V37.2152H225.615V31.8987H227.373V29.2405H229.13V23.924H230.888V21.2658H232.646V18.6076H234.404V15.9493H236.161V13.2911H239.677V10.6329H243.192V7.97467H246.707V5.31644H270.436V7.97467H273.951V10.6329H275.709V13.2911H278.346V10.6329H286.255V22.5949H284.498V30.5696H282.74V38.5443H280.982V46.519H273.073V35.886H271.315V27.9114H269.557V25.2531H267.8V22.5949H266.042V19.9367H264.284V17.2785H256.375V19.9367H252.859V22.5949H249.344V25.2531H247.586V27.9114H245.828V30.5696H244.071V35.886H242.313V38.5443H240.555V43.8607H238.798V49.1772H237.04V57.1519H235.282V74.4303H237.04V79.7468H238.798V85.0632H240.555V87.7215H242.313V90.3797H247.586V93.0379H253.738V90.3797H259.011V87.7215H260.769V85.0632H264.284V82.405H266.042V79.7468H272.194V89.0506H270.436V91.7088H268.678V94.367H266.921V97.0253H265.163V99.6835H261.648V102.342H258.132ZM277.027 24.5886H278.785V19.2721H277.027V24.5886Z" fill="#882766"/>
<path fill-rule="evenodd" clip-rule="evenodd" d="M166.269 101.677V99.019H168.027V96.3608H169.784V93.7025H171.542V91.0443H173.3V88.3861H175.057V93.7025H173.3V99.019H175.057V101.677H183.846V99.019H185.604V96.3608H189.119V93.7025H190.877V88.3861H192.634V85.7279H190.877V88.3861H189.119V91.0443H187.361V93.7025H182.088V85.7279H183.846V77.7532H185.604V72.4367H187.361V64.462H189.119V59.1456H190.877V51.1709H192.634V45.8544H194.392V40.538H189.119V43.1962H187.361V40.538H182.088V37.8798H173.3V40.538H168.027V43.1962H164.511V45.8544H162.754V48.5127H160.996V51.1709H159.238V53.8291H157.481V56.4874H155.723V61.8038H153.965V67.1203H152.208V72.4367H150.45V93.7025H152.208V96.3608H153.965V99.019H155.723V101.677H166.269ZM168.466 102.342V105H153.526V102.342H151.768V99.6835H150.01V97.0253H148.253V69.1139H150.01V63.7975H151.768V58.481H153.526V53.1646H155.283V50.5063H157.041V47.8481H158.799V45.1899H160.557V42.5317H162.314V39.8734H165.83V37.2152H171.103V34.557H184.285V37.2152H196.589V49.1772H194.831V54.4937H193.074V62.4684H191.316V67.7848H189.558V75.7595H187.801V81.0759H186.043V87.7215H186.922V85.0633H188.68V82.4051H194.831V91.7089H193.074V97.0253H191.316V99.6835H187.801V102.342H186.043V105H172.86V102.342H171.103V99.6835H170.224V102.342H168.466ZM185.164 90.3797V89.0506H184.285V90.3797H185.164ZM169.784 48.5127H168.027V51.1709H166.269V53.8291H164.511V59.1456H162.754V61.8038H160.996V69.7785H159.238V91.0443H160.996V93.7025H168.027V91.0443H169.784V88.3861H171.542V85.7279H173.3V83.0696H175.057V80.4114H176.815V83.0696H178.573V80.4114H176.815V75.0949H178.573V69.7785H180.331V61.8038H182.088V56.4874H183.846V45.8544H182.088V43.1962H173.3V45.8544H169.784V48.5127ZM171.982 49.1772H175.497V46.519H179.891V49.1772H181.649V53.1646H179.891V58.481H178.133V66.4557H176.376V71.7722H174.618V77.0886H172.86V79.7468H171.103V82.4051H169.345V85.0633H167.587V87.7215H165.83V90.3797H163.193V87.7215H161.435V73.1013H163.193V65.1266H164.951V62.4684H166.708V57.1519H168.466V54.4937H170.224V51.8355H171.982V49.1772ZM176.815 85.7279H175.057V88.3861H176.815V85.7279Z" fill="#882766"/>
<path fill-rule="evenodd" clip-rule="evenodd" d="M138.177 93.7025H139.935V88.386H141.692V83.0696H143.45V77.7531H145.208V72.4367H146.965V69.7784H143.45V72.4367H141.692V75.0949H139.935V80.4114H138.177V83.0696H136.419V85.7278H134.662V88.386H132.904V91.0443H131.146V93.7025H127.631V96.3607H103.023V93.7025H106.539V88.386H108.296V80.4114H110.054V72.4367H111.812V67.1202H113.569V59.1455H115.327V53.8291H117.085V45.8544H118.842V37.8797H120.6V32.5633H122.358V24.5886H124.115V19.2721H125.873V16.6139H127.631V13.9557H134.662V8.63922H110.054V13.9557H115.327V24.5886H113.569V29.905H111.812V37.8797H110.054V45.8544H108.296V51.1709H106.539V59.1455H104.781V67.1202H103.023V72.4367H101.265V80.4114H99.5077V88.386H97.7501V91.0443H95.9924V93.7025H94.2347V96.3607H88.9616V99.0189H87.2039V101.677H138.177V93.7025ZM86.7645 95.6962H85.0068V105H140.374V97.0253H142.132V91.7088H143.889V86.3924H145.647V81.0759H147.405V75.7594H149.162V66.4557H141.253V69.1139H139.495V71.7721H137.737V77.0886H135.98V79.7468H134.222V82.405H132.464V85.0632H130.707V87.7215H128.949V90.3797H125.434V93.0379H108.736V91.7088H110.493V83.7341H112.251V75.7594H114.009V70.443H115.766V62.4683H117.524V57.1519H119.282V49.1772H121.039V41.2025H122.797V35.886H124.555V27.9114H126.313V22.5949H128.07V19.9367H129.828V17.2785H136.859V5.31644H107.857V17.2785H113.13V21.2658H111.372V26.5823H109.614V34.5569H107.857V42.5316H106.099V47.8481H104.341V55.8227H102.584V63.7974H100.826V69.1139H99.0683V77.0886H97.3106V85.0632H95.553V87.7215H93.7953V90.3797H92.0376V93.0379H86.7645V95.6962Z" fill="#882766"/>
<path fill-rule="evenodd" clip-rule="evenodd" d="M52.0124 69.7785H25.6471V72.4367H23.8894V75.0949H22.1317V80.4114H20.374V83.0696H18.6163V85.7278H16.8586V96.3607H20.374V101.677H2.79712V99.019H4.55481V96.3607H8.07018V93.7025H9.82787V91.0443H11.5856V88.386H13.3432V83.0696H15.1009V80.4114H16.8586V77.7531H18.6163V75.0949H20.374V69.7785H22.1317V67.1202H23.8894V64.462H25.6471V59.1455H27.4048V56.4873H29.1624V53.8291H30.9201V48.5126H32.6778V45.8544H34.4355V43.1962H36.1932V40.538H37.9509V35.2215H39.7086V32.5633H41.4663V29.9051H43.224V24.5886H44.9816V21.9304H46.7393V19.2721H48.497V13.9557H50.2547V11.2975H52.0124V8.63923H53.7701V3.32278H55.5278V32.5633H57.2855V72.4367H59.0432V93.7025H60.8008V96.3607H62.5585V99.019H64.3162V101.677H43.224V96.3607H48.497V93.7025H50.2547V80.4114H48.497V72.4367H52.0124V69.7785ZM29.1624 64.462H48.497V32.5633H46.7393V29.9051H44.9816V32.5633H43.224V37.8797H41.4663V40.538H39.7086V43.1962H37.9509V48.5126H36.1932V51.1709H34.4355V53.8291H32.6778V59.1455H30.9201V61.8038H29.1624V64.462ZM34.8749 61.1392H46.2999V35.8861H45.4211V41.2025H43.6634V43.8607H41.9057V46.519H40.148V51.8354H38.3903V54.4936H36.6326V57.1519H34.8749V61.1392ZM46.2999 73.1012H27.8442V75.7595H26.0865V78.4177H24.3288V83.7341H22.5711V86.3924H20.8134V89.0506H19.0557V93.0379H22.5711V105H0.600006V95.6962H2.3577V93.0379H5.87307V90.3797H7.63076V87.7215H9.38845V85.0633H11.1461V79.7468H12.9038V77.0886H14.6615V74.4303H16.4192V71.7721H18.1769V66.4557H19.9346V63.7974H21.6923V61.1392H23.45V55.8228H25.2076V53.1645H26.9653V50.5063H28.723V45.1899H30.4807V42.5316H32.2384V39.8734H33.9961V37.2152H35.7538V31.8987H37.5115V29.2405H39.2692V26.5823H41.0268V21.2658H42.7845V18.6076H44.5422V15.9494H46.2999V10.6329H48.0576V7.97468H49.8153V5.31645H51.573V0H57.7249V29.2405H59.4826V69.1139H61.2403V90.3797H62.998V93.0379H64.7556V95.6962H66.5133V105H41.0268V93.0379H46.2999V90.3797H48.0576V83.7341H46.2999V73.1012Z" fill="#882766"/>
</svg>
