<svg width="363" height="63" viewBox="0 0 363 63" fill="none" xmlns="http://www.w3.org/2000/svg">
<path fill-rule="evenodd" clip-rule="evenodd" d="M343.992 58.2H349.592V55.4H341.192V49.8H343.992V41.4H346.792V33H349.592V27.4H360.792V24.6H352.392V19H355.192V13.4H352.392V16.2H349.592V19H346.792V21.8H341.192V24.6H338.392V27.4H343.992V30.2H341.192V35.8H338.392V44.2H335.592V52.6H332.792V58.2H335.592V61H343.992V58.2ZM345.992 60.2V63H333.592V60.2H330.792V50.6H333.592V42.2H336.392V33.8H339.192V29.4H336.392V22.6H339.192V19.8H344.792V17H347.592V14.2H350.392V11.4H357.192V21H354.392V22.6H362.792V29.4H351.592V35H348.792V43.4H345.992V51.8H343.192V53.4H351.592V60.2H345.992Z" fill="#882766"/>
<path fill-rule="evenodd" clip-rule="evenodd" d="M313.198 33V30.2H315.998V33H313.198ZM313.198 35.8V33H310.398V35.8H313.198V38.6H310.398V47H307.598V52.6H304.798V61H296.398V58.2H299.198V49.8H301.998V44.2H304.798V35.8H307.598V27.4H304.798V24.6H313.198V21.8H318.798V24.6H315.998V30.2H318.798V33H315.998V35.8H313.198ZM317.998 35V37.8H315.198V40.6H312.398V49H309.598V54.6H306.798V63H294.398V56.2H297.198V47.8H299.998V42.2H302.798V33.8H305.598V29.4H302.798V22.6H311.198V19.8H320.798V22.6H325.198V19.8H331.998V22.6H334.798V35H322.398V32.2H320.798V35H317.998ZM324.398 33H332.798V24.6H329.998V21.8H327.198V24.6H321.598V27.4H318.798V30.2H321.598V27.4H324.398V33Z" fill="#882766"/>
<path fill-rule="evenodd" clip-rule="evenodd" d="M260.033 49.8V47H262.833V38.6H265.633V33H268.433V30.2H271.233V27.4H276.833V24.6H279.633V27.4H285.233V33H282.433V41.4H279.633V47H276.833V49.8H274.033V52.6H271.233V55.4H262.833V49.8H260.033ZM264.833 53.4H269.233V50.6H272.033V47.8H274.833V45H277.633V39.4H280.433V31H283.233V29.4H273.233V32.2H270.433V35H267.633V40.6H264.833V53.4ZM260.033 33H262.833V30.2H265.633V27.4H268.433V24.6H274.033V21.8H282.433V24.6H293.633V30.2H290.833V35.8H288.033V44.2H285.233V49.8H282.433V55.4H288.033V58.2H285.233V61H276.833V58.2H274.033V55.4H276.833V52.6H279.633V49.8H276.833V52.6H274.033V55.4H271.233V58.2H268.433V61H257.233V58.2H254.433V41.4H257.233V35.8H260.033V33ZM258.033 33.8V31H260.833V28.2H263.633V25.4H266.433V22.6H272.033V19.8H284.433V22.6H295.633V32.2H292.833V37.8H290.033V46.2H287.233V51.8H284.433V53.4H290.033V60.2H287.233V63H274.833V60.2H270.433V63H255.233V60.2H252.433V39.4H255.233V33.8H258.033Z" fill="#882766"/>
<path fill-rule="evenodd" clip-rule="evenodd" d="M218.03 61H234.83V58.2H240.43V55.4H243.23V52.6H246.03V49.8H243.23V52.6H240.43V55.4H234.83V58.2H223.63V55.4H218.03V52.6H215.23V47H212.43V33H215.23V24.6H218.03V19H220.83V16.2H223.63V13.4H226.43V10.6H232.03V7.8H243.23V10.6H246.03V13.4H248.83V19H251.63V27.4H254.43V19H257.23V10.6H260.03V7.8H254.43V13.4H251.63V10.6H248.83V7.8H246.03V5H226.43V7.8H220.83V10.6H218.03V13.4H215.23V16.2H212.43V19H209.63V21.8H206.83V30.2H204.03V47H206.83V52.6H209.63V55.4H212.43V58.2H218.03V61ZM210.43 57.4V60.2H216.03V63H236.83V60.2H242.43V57.4H245.23V54.6H248.03V47.8H241.23V50.6H238.43V53.4H232.83V56.2H225.63V53.4H220.03V50.6H217.23V45H214.43V35H217.23V26.6H220.03V21H222.83V18.2H225.63V15.4H228.43V12.6H234.03V9.8H241.23V12.6H244.03V15.4H246.83V21H249.63V29.4H256.43V21H259.23V12.6H262.03V5.8H252.43V8.6H250.83V5.8H248.03V3H224.43V5.8H218.83V8.6H216.03V11.4H213.23V14.2H210.43V17H207.63V19.8H204.83V28.2H202.03V49H204.83V54.6H207.63V57.4H210.43Z" fill="#882766"/>
<path fill-rule="evenodd" clip-rule="evenodd" d="M142.455 49.8V47H145.255V38.6H148.055V33H150.855V30.2H153.655V27.4H159.255V24.6H162.055V27.4H167.655V33H164.855V41.4H162.055V47H159.255V49.8H156.455V52.6H153.655V55.4H145.255V49.8H142.455ZM147.255 53.4H151.655V50.6H154.455V47.8H157.255V45H160.055V39.4H162.855V31H165.655V29.4H155.655V32.2H152.855V35H150.055V40.6H147.255V53.4ZM142.455 33H145.255V30.2H148.055V27.4H150.855V24.6H156.455V21.8H164.855V24.6H176.055V30.2H173.255V35.8H170.455V44.2H167.655V49.8H164.855V55.4H170.455V58.2H167.655V61H159.255V58.2H156.455V55.4H159.255V52.6H162.055V49.8H159.255V52.6H156.455V55.4H153.655V58.2H150.855V61H139.655V58.2H136.855V41.4H139.655V35.8H142.455V33ZM140.455 33.8V31H143.255V28.2H146.055V25.4H148.855V22.6H154.455V19.8H166.855V22.6H178.055V32.2H175.255V37.8H172.455V46.2H169.655V51.8H166.855V53.4H172.455V60.2H169.655V63H157.255V60.2H152.855V63H137.655V60.2H134.855V39.4H137.655V33.8H140.455Z" fill="#882766"/>
<path fill-rule="evenodd" clip-rule="evenodd" d="M125.664 52.6H128.464V47H131.264V41.4H128.464V47H125.664V49.8H122.864V52.6H120.064V55.4H114.464V58.2H92.0641V55.4H94.8641V52.6H97.6641V47H100.464V38.6H103.264V33H106.064V24.6H108.864V16.2H111.664V10.6H114.464V7.8H122.864V5H97.6641V7.8H103.264V19H100.464V24.6H97.6641V33H94.8641V41.4H92.0641V47H89.2641V55.4H86.4641V58.2H78.0641V61H125.664V52.6ZM84.4641 56.2H76.0641V63H127.664V54.6H130.464V49H133.264V39.4H126.464V45H123.664V47.8H120.864V50.6H118.064V53.4H112.464V56.2H96.8641V54.6H99.6641V49H102.464V40.6H105.264V35H108.064V26.6H110.864V18.2H113.664V12.6H116.464V9.8H124.864V3H95.6641V9.8H101.264V17H98.4641V22.6H95.6641V31H92.8641V39.4H90.0641V45H87.2641V53.4H84.4641V56.2Z" fill="#882766"/>
<path fill-rule="evenodd" clip-rule="evenodd" d="M42.4391 43.4H24.0391V46.2H21.2391V51.8H18.4391V54.6H15.6391V56.2H21.2391V63H0.439087V56.2H3.23909V53.4H8.83909V47.8H11.6391V45H14.4391V42.2H17.2391V36.6H20.0391V33.8H22.8391V31H25.6391V25.4H28.4391V22.6H31.2391V19.8H34.0391V14.2H36.8391V11.4H39.6391V8.60001H42.4391V5.80001H45.2391V0.200012H52.0391V33.8H54.8391V56.2H60.4391V63H36.8391V56.2H42.4391V43.4ZM44.4391 58.2H38.8391V61H58.4391V58.2H52.8391V35.8H50.0391V2.20001H47.2391V7.80001H44.4391V10.6H41.6391V13.4H38.8391V16.2H36.0391V21.8H33.2391V24.6H30.4391V27.4H27.6391V33H24.8391V35.8H22.0391V38.6H19.2391V44.2H16.4391V47H13.6391V49.8H10.8391V55.4H5.23909V58.2H2.43909V61H19.2391V58.2H13.6391V52.6H16.4391V49.8H19.2391V44.2H22.0391V41.4H47.2391V44.2H44.4391V58.2ZM27.6391 33V38.6H44.4391V30.2H41.6391V19H38.8391V21.8H36.0391V27.4H33.2391V30.2H30.4391V33H27.6391ZM29.6391 35V36.6H42.4391V32.2H39.6391V23.8H38.0391V29.4H35.2391V32.2H32.4391V35H29.6391Z" fill="#882766"/>
</svg>
